<svg width="299" height="514" viewBox="0 0 299 514" fill="none" xmlns="http://www.w3.org/2000/svg">
<path d="M295.7 80.6242L64.5 33.2242L67.5 20.2242L298.7 67.5242L295.7 80.6242Z" fill="#475AEA"/>
<path d="M292.6 76.4242L287.1 67.7242C286.8 67.2242 285.9 67.7242 286.3 68.2242L291.8 76.9242C292.2 77.5242 293 76.9242 292.6 76.4242Z" fill="#0D0F44"/>
<path d="M285.4 75.5243L294.1 70.0243C294.6 69.7243 294.1 68.8243 293.6 69.2243L284.9 74.7243C284.3 75.0243 284.8 75.8243 285.4 75.5243Z" fill="#0D0F44"/>
<path d="M283.559 66.7679L275.543 65.0393L273.815 73.0548L281.83 74.7834L283.559 66.7679Z" fill="#FFD550"/>
<path d="M221.1 57.9242C186.6 50.8242 152.1 43.7242 117.6 36.6242C116.9 36.4242 116.6 37.6242 117.3 37.7242C151.8 44.8242 186.3 51.9242 220.8 59.0242C221.6 59.2242 221.9 58.0242 221.1 57.9242Z" fill="white"/>
<path d="M239 424.324C235.9 426.624 186.8 478.024 186.8 478.024L243.7 497.524L239 424.324Z" fill="#ECEFF8"/>
<path d="M289.6 408.224C238.6 389.624 177.2 403.124 139.5 442.424C131.5 450.724 124.4 460.824 122.1 472.224C121.7 472.524 121.2 472.724 120.8 473.024C107 482.124 99.8999 497.924 94.0999 512.724C93.7999 513.424 94.9999 513.724 95.1999 513.024C100.2 500.224 106 487.024 116.5 477.724C118.1 476.324 119.9 474.924 121.8 473.724C121.6 475.024 121.4 476.324 121.3 477.724C120.6 489.424 125.6 502.624 137 507.624C146.3 511.724 158.9 510.024 164.7 500.924C170.5 491.724 166.5 479.324 158.8 472.524C148.9 463.724 134.3 465.324 123.4 471.424C126.3 458.724 135 448.024 144.2 439.224C162 422.324 184.5 410.724 208.3 405.024C235 398.624 263.4 399.824 289.3 409.324C290 409.624 290.3 408.424 289.6 408.224ZM153.3 470.124C163 474.924 169.6 488.024 164.8 498.424C159.8 509.224 145.2 511.024 135.7 505.624C124.5 499.424 120.9 484.824 123.1 472.924C132.2 467.624 143.6 465.324 153.3 470.124Z" fill="#ECEFF8"/>
<path d="M64.4999 103.524H17.8C17 103.524 17 104.724 17.8 104.724H64.4999C65.1999 104.724 65.1999 103.524 64.4999 103.524Z" fill="#DADEEB"/>
<path d="M89.1001 0.0241911C60.1001 8.22419 39.3 34.6242 38.5 64.7242C38.3 73.8242 39.8001 82.9242 43.1001 91.4242C43.4001 92.1242 44.5 91.8242 44.2 91.1242C37.1 72.4242 38.4 50.8242 48.2 33.3242C57 17.6242 72.1001 5.92419 89.4001 1.12419C90.1001 0.92419 89.8001 -0.175809 89.1001 0.0241911Z" fill="#DADEEB"/>
<path d="M46.7999 80.4242C45.9999 84.2242 45.1999 88.0242 44.3999 91.8242C41.9999 89.6242 39.6999 87.5242 37.2999 85.3242C36.6999 84.8242 35.8999 85.6242 36.4999 86.1242C39.0999 88.5242 41.6999 90.9242 44.2999 93.3242C44.5999 93.6242 45.1999 93.5242 45.2999 93.0242C46.1999 88.9242 47.0999 84.7242 47.8999 80.6242C48.0999 80.0242 46.8999 79.7242 46.7999 80.4242Z" fill="#DADEEB"/>
<path d="M251.3 158.124H248.4C248.1 158.124 247.8 157.824 247.8 157.524C247.8 157.224 248.1 156.924 248.4 156.924H250.8L250.9 154.624C250.9 154.324 251.1 154.024 251.5 154.024C251.8 154.024 252.1 154.324 252.1 154.624L252 157.524C251.9 157.924 251.6 158.124 251.3 158.124Z" fill="#475AEA"/>
<path d="M242.5 158.124H236.6C236.3 158.124 236 157.824 236 157.524C236 157.224 236.3 156.924 236.6 156.924H242.5C242.8 156.924 243.1 157.224 243.1 157.524C243.1 157.924 242.8 158.124 242.5 158.124ZM230.7 158.124H224.8C224.5 158.124 224.2 157.824 224.2 157.524C224.2 157.224 224.5 156.924 224.8 156.924H230.7C231 156.924 231.3 157.224 231.3 157.524C231.3 157.924 231 158.124 230.7 158.124ZM218.9 158.124H213C212.7 158.124 212.4 157.824 212.4 157.524C212.4 157.224 212.7 156.924 213 156.924H218.9C219.2 156.924 219.5 157.224 219.5 157.524C219.5 157.824 219.2 158.124 218.9 158.124ZM207.1 158.124H201.2C200.9 158.124 200.6 157.824 200.6 157.524C200.6 157.224 200.9 156.924 201.2 156.924H207.1C207.4 156.924 207.7 157.224 207.7 157.524C207.7 157.824 207.4 158.124 207.1 158.124ZM195.3 158.124H189.4C189.1 158.124 188.8 157.824 188.8 157.524C188.8 157.224 189.1 156.924 189.4 156.924H195.3C195.6 156.924 195.9 157.224 195.9 157.524C195.9 157.824 195.6 158.124 195.3 158.124ZM183.5 158.024H177.6C177.3 158.024 177 157.724 177 157.424C177 157.124 177.3 156.824 177.6 156.824H183.5C183.8 156.824 184.1 157.124 184.1 157.424C184.1 157.824 183.8 158.024 183.5 158.024ZM171.7 158.024H165.8C165.5 158.024 165.2 157.724 165.2 157.424C165.2 157.124 165.5 156.824 165.8 156.824H171.7C172 156.824 172.3 157.124 172.3 157.424C172.3 157.824 172 158.024 171.7 158.024ZM159.9 158.024H154C153.7 158.024 153.4 157.724 153.4 157.424C153.4 157.124 153.7 156.824 154 156.824H159.9C160.2 156.824 160.5 157.124 160.5 157.424C160.5 157.824 160.2 158.024 159.9 158.024ZM148.1 158.024H142.2C141.9 158.024 141.6 157.724 141.6 157.424C141.6 157.124 141.9 156.824 142.2 156.824H148.1C148.4 156.824 148.7 157.124 148.7 157.424C148.6 157.724 148.4 158.024 148.1 158.024ZM136.3 158.024H130.4C130.1 158.024 129.8 157.724 129.8 157.424C129.8 157.124 130.1 156.824 130.4 156.824H136.3C136.6 156.824 136.9 157.124 136.9 157.424C136.8 157.724 136.6 158.024 136.3 158.024ZM124.5 158.024H118.6C118.3 158.024 118 157.724 118 157.424C118 157.124 118.3 156.824 118.6 156.824H124.5C124.8 156.824 125.1 157.124 125.1 157.424C125 157.724 124.8 158.024 124.5 158.024ZM112.7 157.924H106.8C106.5 157.924 106.2 157.624 106.2 157.324C106.2 157.024 106.5 156.724 106.8 156.724H112.7C113 156.724 113.3 157.024 113.3 157.324C113.2 157.724 113 157.924 112.7 157.924ZM100.8 157.924H94.9C94.6 157.924 94.3 157.624 94.3 157.324C94.3 157.024 94.6 156.724 94.9 156.724H100.8C101.1 156.724 101.4 157.024 101.4 157.324C101.4 157.724 101.2 157.924 100.8 157.924ZM89 157.924H83.1C82.8 157.924 82.5 157.624 82.5 157.324C82.5 157.024 82.8 156.724 83.1 156.724H89C89.3 156.724 89.6 157.024 89.6 157.324C89.6 157.624 89.4 157.924 89 157.924ZM77.2 157.924H71.3C71 157.924 70.7 157.624 70.7 157.324C70.7 157.024 71 156.724 71.3 156.724H77.2C77.5 156.724 77.8 157.024 77.8 157.324C77.8 157.624 77.6 157.924 77.2 157.924ZM65.4 157.924H59.5C59.2 157.924 58.9 157.624 58.9 157.324C58.9 157.024 59.2 156.724 59.5 156.724H65.4C65.7 156.724 66 157.024 66 157.324C66 157.624 65.8 157.924 65.4 157.924ZM53.6 157.924H47.7C47.4 157.924 47.1 157.624 47.1 157.324C47.1 157.024 47.4 156.724 47.7 156.724H53.6C53.9 156.724 54.2 157.024 54.2 157.324C54.2 157.624 54 157.924 53.6 157.924ZM41.8 157.824H35.9C35.6 157.824 35.3 157.524 35.3 157.224C35.3 156.924 35.6 156.624 35.9 156.624H41.8C42.1 156.624 42.4 156.924 42.4 157.224C42.4 157.624 42.2 157.824 41.8 157.824ZM30 157.824H24.1C23.8 157.824 23.5 157.524 23.5 157.224C23.5 156.924 23.8 156.624 24.1 156.624H30C30.3 156.624 30.6 156.924 30.6 157.224C30.6 157.524 30.4 157.824 30 157.824Z" fill="#475AEA"/>
<path d="M18.2 157.824H15.2999C14.9999 157.824 14.7 157.524 14.7 157.224V154.324C14.7 154.024 14.9999 153.724 15.2999 153.724C15.5999 153.724 15.8999 154.024 15.8999 154.324V156.624H18.2C18.5 156.624 18.7999 156.924 18.7999 157.224C18.7999 157.524 18.5 157.824 18.2 157.824Z" fill="#475AEA"/>
<path d="M15.2999 147.324C14.9999 147.324 14.7 147.024 14.7 146.724V143.824C14.7 143.624 14.7999 143.524 14.8999 143.424C14.9999 143.324 15.1999 143.224 15.2999 143.224H18.2C18.5 143.224 18.7999 143.524 18.7999 143.824C18.7999 144.124 18.5 144.424 18.2 144.424H15.8999V146.724C15.8999 147.024 15.5999 147.324 15.2999 147.324Z" fill="#475AEA"/>
<path d="M242.8 144.724H236.9C236.6 144.724 236.3 144.424 236.3 144.124C236.3 143.824 236.6 143.524 236.9 143.524H242.8C243.1 143.524 243.4 143.824 243.4 144.124C243.4 144.424 243.1 144.724 242.8 144.724ZM231 144.724H225.1C224.8 144.724 224.5 144.424 224.5 144.124C224.5 143.824 224.8 143.524 225.1 143.524H231C231.3 143.524 231.6 143.824 231.6 144.124C231.6 144.424 231.3 144.724 231 144.724ZM219.2 144.724H213.3C213 144.724 212.7 144.424 212.7 144.124C212.7 143.824 213 143.524 213.3 143.524H219.2C219.5 143.524 219.8 143.824 219.8 144.124C219.8 144.424 219.5 144.724 219.2 144.724ZM207.4 144.624H201.5C201.2 144.624 200.9 144.324 200.9 144.024C200.9 143.724 201.2 143.424 201.5 143.424H207.4C207.7 143.424 208 143.724 208 144.024C207.9 144.424 207.7 144.624 207.4 144.624ZM195.5 144.624H189.6C189.3 144.624 189 144.324 189 144.024C189 143.724 189.3 143.424 189.6 143.424H195.5C195.8 143.424 196.1 143.724 196.1 144.024C196.1 144.424 195.9 144.624 195.5 144.624ZM183.7 144.624H177.8C177.5 144.624 177.2 144.324 177.2 144.024C177.2 143.724 177.5 143.424 177.8 143.424H183.7C184 143.424 184.3 143.724 184.3 144.024C184.3 144.424 184 144.624 183.7 144.624ZM171.9 144.624H166C165.7 144.624 165.4 144.324 165.4 144.024C165.4 143.724 165.7 143.424 166 143.424H171.9C172.2 143.424 172.5 143.724 172.5 144.024C172.5 144.324 172.2 144.624 171.9 144.624ZM160.1 144.624H154.2C153.9 144.624 153.6 144.324 153.6 144.024C153.6 143.724 153.9 143.424 154.2 143.424H160.1C160.4 143.424 160.7 143.724 160.7 144.024C160.7 144.324 160.4 144.624 160.1 144.624ZM148.3 144.624H142.4C142.1 144.624 141.8 144.324 141.8 144.024C141.8 143.724 142.1 143.424 142.4 143.424H148.3C148.6 143.424 148.9 143.724 148.9 144.024C148.8 144.324 148.6 144.624 148.3 144.624ZM136.4 144.524H130.5C130.2 144.524 129.9 144.224 129.9 143.924C129.9 143.624 130.2 143.324 130.5 143.324H136.4C136.7 143.324 137 143.624 137 143.924C137 144.324 136.8 144.524 136.4 144.524ZM124.6 144.524H118.7C118.4 144.524 118.1 144.224 118.1 143.924C118.1 143.624 118.4 143.324 118.7 143.324H124.6C124.9 143.324 125.2 143.624 125.2 143.924C125.2 144.324 124.9 144.524 124.6 144.524ZM112.8 144.524H106.9C106.6 144.524 106.3 144.224 106.3 143.924C106.3 143.624 106.6 143.324 106.9 143.324H112.8C113.1 143.324 113.4 143.624 113.4 143.924C113.4 144.224 113.1 144.524 112.8 144.524ZM101 144.524H95.1C94.8 144.524 94.5 144.224 94.5 143.924C94.5 143.624 94.8 143.324 95.1 143.324H101C101.3 143.324 101.6 143.624 101.6 143.924C101.6 144.224 101.3 144.524 101 144.524ZM89.1 144.524H83.2C82.9 144.524 82.6 144.224 82.6 143.924C82.6 143.624 82.9 143.324 83.2 143.324H89.1C89.4 143.324 89.7 143.624 89.7 143.924C89.7 144.224 89.5 144.524 89.1 144.524ZM77.3 144.524H71.4C71.1 144.524 70.8 144.224 70.8 143.924C70.8 143.624 71.1 143.324 71.4 143.324H77.3C77.6 143.324 77.9 143.624 77.9 143.924C77.9 144.224 77.7 144.524 77.3 144.524ZM65.5 144.424H59.6C59.3 144.424 59 144.124 59 143.824C59 143.524 59.3 143.224 59.6 143.224H65.5C65.8 143.224 66.1 143.524 66.1 143.824C66.1 144.224 65.8 144.424 65.5 144.424ZM53.7 144.424H47.8C47.5 144.424 47.2 144.124 47.2 143.824C47.2 143.524 47.5 143.224 47.8 143.224H53.7C54 143.224 54.3 143.524 54.3 143.824C54.3 144.224 54 144.424 53.7 144.424ZM41.9 144.424H36C35.7 144.424 35.4 144.124 35.4 143.824C35.4 143.524 35.7 143.224 36 143.224H41.9C42.2 143.224 42.5 143.524 42.5 143.824C42.5 144.124 42.2 144.424 41.9 144.424ZM30 144.424H24.1C23.8 144.424 23.5 144.124 23.5 143.824C23.5 143.524 23.8 143.224 24.1 143.224H30C30.3 143.224 30.6 143.524 30.6 143.824C30.6 144.124 30.4 144.424 30 144.424Z" fill="#475AEA"/>
<path d="M251.6 147.624C251.3 147.624 251 147.324 251 147.024L251.1 144.724H248.8C248.5 144.724 248.2 144.424 248.2 144.124C248.2 143.824 248.5 143.524 248.8 143.524H251.7C251.9 143.524 252 143.624 252.1 143.724C252.2 143.824 252.3 144.024 252.3 144.124L252.2 147.024C252.2 147.424 251.9 147.624 251.6 147.624Z" fill="#475AEA"/>
<path d="M263.9 468.524H0.600006C0.300006 468.524 0 468.224 0 467.924V112.724C0 112.424 0.300006 112.124 0.600006 112.124H263.9C264.2 112.124 264.5 112.424 264.5 112.724V467.924C264.5 468.224 264.2 468.524 263.9 468.524ZM1.2 467.324H263.3V113.324H1.2V467.324Z" fill="#0D0F44"/>
<path d="M279.4 229.124H276.3V264.224H279.4V229.124Z" fill="#DADEEB"/>
<path d="M230.4 457.624H187.6C187.3 457.624 187 457.324 187 457.024V437.524C187 437.224 187.3 436.924 187.6 436.924H230.4C230.7 436.924 231 437.224 231 437.524V457.024C231 457.324 230.7 457.624 230.4 457.624ZM188.1 456.424H229.8V438.124H188.1V456.424Z" fill="#0D0F44"/>
<path d="M82.2 210.224H23.8V268.624H82.2V210.224Z" fill="#C0CFFF"/>
<path d="M73.3 258.924C60.1 245.724 46.8 232.424 33.6 219.224C33.1 218.724 32.2 219.524 32.8 220.024L72.5 259.724C73 260.324 73.8 259.424 73.3 258.924Z" fill="white"/>
<path d="M33.6001 259.724C46.8001 246.524 60.1001 233.224 73.3001 220.024C73.8001 219.524 73.0001 218.624 72.5001 219.224L32.8001 258.924C32.2001 259.424 33.0001 260.324 33.6001 259.724Z" fill="white"/>
<path d="M227.7 219.024H93.9001V225.224H227.7V219.024Z" fill="#ECEFF8"/>
<path d="M227.7 249.224H93.9001V255.424H227.7V249.224Z" fill="#DADEEB"/>
<path d="M82.2 293.824H23.8V352.224H82.2V293.824Z" fill="#DADEEB"/>
<path d="M73.3 342.424C60.1 329.224 46.8 315.924 33.6 302.724C33.1 302.224 32.2 303.024 32.8 303.524L72.5 343.224C73 343.824 73.8 343.024 73.3 342.424Z" fill="#E22A38"/>
<path d="M33.6001 343.324C46.8001 330.124 60.1001 316.824 73.3001 303.624C73.8001 303.124 73.0001 302.224 72.5001 302.824L32.8001 342.524C32.2001 343.024 33.0001 343.824 33.6001 343.324Z" fill="#E22A38"/>
<path d="M227.7 302.624H93.9001V308.824H227.7V302.624Z" fill="#DADEEB"/>
<path d="M227.7 332.724H93.9001V338.924H227.7V332.724Z" fill="#DADEEB"/>
<path d="M82.2 377.324H23.8V435.724H82.2V377.324Z" fill="#DADEEB"/>
<path d="M73.3 426.024C60.1 412.824 46.8 399.524 33.6 386.324C33.1 385.824 32.2 386.624 32.8 387.124L72.5 426.824C73 427.324 73.8 426.524 73.3 426.024Z" fill="white"/>
<path d="M33.5999 426.824C46.7999 413.624 60.0999 400.324 73.2999 387.124C73.7999 386.624 72.9999 385.724 72.4999 386.324L32.6999 426.024C32.1999 426.524 32.9999 427.324 33.5999 426.824Z" fill="white"/>
<path d="M227.7 386.124H93.9001V392.324H227.7V386.124Z" fill="#FFD550"/>
<path d="M227.7 416.324H93.9001V422.524H227.7V416.324Z" fill="#DADEEB"/>
<path d="M249.4 358.424C243.6 363.524 237.8 368.624 232.1 373.824C231.5 374.324 232.4 375.124 232.9 374.624C238.7 369.524 244.5 364.424 250.2 359.224C250.8 358.724 249.9 357.924 249.4 358.424Z" fill="#FFD550"/>
<path d="M254.4 383.624C248.4 384.524 242.5 385.424 236.5 386.224C235.8 386.324 236.1 387.424 236.8 387.324C242.8 386.424 248.7 385.524 254.7 384.724C255.5 384.624 255.2 383.524 254.4 383.624Z" fill="#FFD550"/>
<path d="M167.3 196.724C165.6 182.224 164.1 168.524 160.7 159.724C155.7 146.824 147.4 143.124 144.6 142.624C141.4 142.024 132.5 136.624 129.1 151.224C126.9 160.524 122.9 176.224 118.7 198.024C134.9 198.424 151.1 197.824 167.3 196.724Z" fill="#FFD550"/>
<path d="M121 218.024C132 218.524 143 218.624 154.1 218.724C159.4 218.824 164.8 218.824 170.1 218.824C169.7 215.624 169.3 212.524 168.9 209.424C168 202.824 167.3 196.224 166.5 189.924C151.2 189.124 136 188.624 120.7 188.524C119.2 195.924 117.6 204.124 116 213.224C115.7 214.724 115.5 216.324 115.2 217.824C117.1 217.924 119.1 217.924 121 218.024Z" fill="#475AEA"/>
<path d="M187.2 372.124C177.9 367.824 177.8 274.724 168.9 209.524C168.5 206.824 168.2 204.124 167.9 201.524C159.6 201.324 151.2 201.224 142.9 201.124C141.8 214.424 140.6 227.724 140.1 241.024C141 232.624 141.7 226.124 141.9 222.624C141.9 222.624 143 379.124 142.8 382.724C144.3 382.924 197.4 391.924 197.4 391.924C197.4 391.924 201.8 378.924 187.2 372.124Z" fill="#475AEA"/>
<path d="M139.2 366.624C125.9 348.224 141.8 226.224 141.8 226.224C142.6 217.324 143.2 208.424 143.3 199.424C135.1 199.024 126.8 198.724 118.6 198.624C117.7 203.224 116.8 208.024 115.9 213.124C103.9 282.624 95.2002 380.224 95.2002 380.224L148.7 387.224C148.7 387.224 150.4 377.024 141.8 369.724C141 368.824 140.1 367.824 139.2 366.624Z" fill="#475AEA"/>
<path d="M141.8 369.824C141 368.824 140.1 367.824 139.2 366.624C138.5 365.724 137.9 364.424 137.4 363.024C124 362.024 110.6 361.024 97.1002 360.224C95.9002 372.624 95.2002 380.224 95.2002 380.224L148.7 387.224C148.7 387.324 150.3 377.024 141.8 369.824Z" fill="#E22A38"/>
<path d="M187.2 372.124C186.1 371.624 185.2 369.924 184.3 367.324C170.3 365.724 156.2 364.224 142.7 360.224C142.8 373.224 142.8 381.924 142.7 382.824C144.2 383.024 197.3 392.024 197.3 392.024C197.3 392.024 201.8 378.924 187.2 372.124Z" fill="#E22A38"/>
<path d="M143 215.424C142.4 215.124 141.9 214.824 141.3 214.524C141.2 214.324 141 214.224 140.7 214.224C137.7 212.524 134.7 210.924 131.6 209.224C130.9 208.824 130.4 209.824 131 210.224C134.1 211.924 137.1 213.624 140.2 215.324C140.4 217.624 140.6 219.924 140.8 222.224C140.9 222.924 142 222.924 142 222.224C141.8 220.124 141.6 218.124 141.4 216.024C141.7 216.224 142 216.324 142.3 216.524C143.1 216.824 143.7 215.824 143 215.424Z" fill="white"/>
<path d="M142.4 374.224L142 380.824C142 381.624 143.1 381.524 143.2 380.824L143.6 374.224C143.6 373.524 142.4 373.524 142.4 374.224Z" fill="white"/>
<path d="M148.3 381.524C146.6 381.124 145 380.724 143.3 380.324C142.6 380.124 142.3 381.324 143 381.424C144.7 381.824 146.3 382.224 148 382.624C148.7 382.824 149 381.624 148.3 381.524Z" fill="white"/>
<path d="M182.6 368.124C181.8 368.624 181 369.124 180.3 369.624C179.7 370.024 180.2 371.024 180.9 370.624C181.7 370.124 182.5 369.624 183.2 369.124C183.8 368.724 183.2 367.724 182.6 368.124Z" fill="white"/>
<path d="M135.3 365.524C134.2 366.124 133.2 366.724 132.2 367.424C131.6 367.824 132.1 368.824 132.8 368.424C133.9 367.824 134.9 367.224 135.9 366.524C136.5 366.224 136 365.224 135.3 365.524Z" fill="white"/>
<path d="M159.5 187.524C159.3 189.624 159.1 191.824 158.9 193.924C158.8 194.624 160 194.624 160.1 193.924C160.3 191.824 160.5 189.624 160.7 187.524C160.7 186.724 159.6 186.724 159.5 187.524Z" fill="white"/>
<path d="M123.9 187.924C123.5 189.724 123.1 191.424 122.7 193.224C122.5 193.924 123.7 194.224 123.8 193.524C124.2 191.724 124.6 190.024 125 188.224C125.2 187.524 124 187.224 123.9 187.924Z" fill="white"/>
<path d="M277.5 68.9242C275.8 67.9242 275.5 77.5242 275.5 80.7242C275.5 77.7242 275.3 68.8242 273.2 68.3242C270.6 67.7242 270.3 81.2242 270.3 81.2242C270.3 81.2242 270.3 68.3242 268.3 68.1242C266.9 67.9242 266.2 73.9242 265.9 77.5242C266.1 74.1242 266 68.5242 264 68.1242C261.1 67.5242 258.2 92.3242 258.2 92.3242C258.2 92.3242 257 80.6242 255 80.9242C253 81.2242 252.7 83.2242 253 106.324C253.2 122.024 233.1 145.624 201.4 152.124C201.6 157.524 201.6 162.924 201.7 168.324C228 164.524 256.1 150.924 267 135.424C283.6 111.524 279.6 70.1242 277.5 68.9242Z" fill="#F3ABAA"/>
<path d="M202.5 151.824C187.3 155.224 169.4 154.724 149.8 147.324C149.8 147.324 132.7 157.824 161.9 171.824C173.1 177.224 188.7 182.024 204.4 179.224C203.4 174.024 203.5 157.124 202.5 151.824Z" fill="#FFD550"/>
<path d="M197 155.924C196.9 155.224 195.8 155.124 195.8 155.924L197.4 174.624C197.5 175.324 198.6 175.424 198.6 174.624L197 155.924Z" fill="white"/>
<path d="M266.2 74.5242C266.1 72.1242 266 69.9242 264.5 67.9242C264.1 67.3242 263 67.9242 263.5 68.5242C265.3 70.8242 265 73.9242 265.1 76.6242C265.2 79.3242 265.2 81.9242 265.3 84.6242C265.3 85.4242 266.5 85.4242 266.5 84.6242C266.4 81.3242 266.3 77.9242 266.2 74.5242Z" fill="#E22A38"/>
<path d="M270.6 73.5242C270.6 71.2242 270.5 69.3242 268.4 68.0242C267.8 67.6242 267.2 68.6242 267.8 69.0242C270.2 70.5242 269.5 75.7242 269.5 78.0242C269.5 80.4242 269.6 82.8242 269.6 85.2242C269.6 86.0242 270.8 86.0242 270.8 85.2242C270.7 81.3242 270.6 77.4242 270.6 73.5242Z" fill="#E22A38"/>
<path d="M275.8 72.7242C275.7 70.6242 275.1 68.7242 272.8 68.3242C272.1 68.2242 271.7 69.3242 272.5 69.4242C275.4 69.9242 274.7 76.3242 274.7 78.2242C274.7 80.6242 274.8 83.0242 274.8 85.4242C274.8 86.2242 276 86.2242 276 85.4242C275.9 81.2242 276 76.9242 275.8 72.7242Z" fill="#E22A38"/>
<path d="M279.6 74.8242C279.5 72.7242 279.4 70.6242 277.6 69.2242C277 68.7242 276.2 69.5242 276.8 70.0242C279.1 71.9242 278.5 75.7242 278.5 78.3242C278.5 81.4242 278.6 84.5242 278.6 87.6242C278.6 88.4242 279.8 88.4242 279.8 87.6242C279.7 83.3242 279.8 79.0242 279.6 74.8242Z" fill="#E22A38"/>
<path d="M164.1 170.224C163.5 168.824 162.9 167.524 162.3 166.124C162 165.424 161 166.024 161.3 166.724C161.9 168.124 162.5 169.424 163.1 170.824C163.4 171.524 164.4 170.924 164.1 170.224Z" fill="white"/>
<path d="M121.5 124.524C106.6 105.724 100.6 82.3242 102 65.1242C103.9 42.6242 104.5 40.1242 102.4 39.6242C100.4 39.1242 98.1001 50.6242 98.1001 50.6242C98.1001 50.6242 98.8001 25.2242 95.0001 26.2242C93.0001 26.7242 92.5001 35.7242 92.3001 39.1242C92.4001 35.5242 93.6001 24.1242 90.8001 25.7242C89.0001 26.7242 87.0001 38.5242 87.0001 38.5242C87.0001 38.5242 88.7002 24.5242 85.4002 25.8242C83.3002 26.7242 82.1001 38.3242 81.8001 41.3242C82.1001 38.1242 82.0001 25.8242 79.6001 26.8242C77.9001 27.5242 76.9001 32.1242 76.5001 38.6242C75.7001 51.6242 76.8001 70.4242 77.7001 73.1242C78.0001 82.7242 79.6001 92.3242 83.2001 104.124C87.9001 119.124 98.8001 133.124 113 143.124C115.8 136.824 118.6 130.624 121.5 124.524Z" fill="#F3ABAA"/>
<path d="M116.2 117.124C112 123.224 100.3 140.624 96 146.624C107.2 157.124 126.3 160.024 142 163.324C142.9 157.824 146.1 151.624 147.7 146.224C134 139.124 123.6 128.724 116.2 117.124Z" fill="#FFD550"/>
<path d="M116.9 123.824L102.3 146.624C101.9 147.224 102.9 147.824 103.3 147.224C108.2 139.624 113 132.024 117.9 124.424C118.3 123.824 117.3 123.224 116.9 123.824Z" fill="white"/>
<path d="M94.7001 26.0241C93.0001 26.8241 92.8001 28.3241 92.6001 30.0241C92.4001 33.2241 92.2001 39.8241 92.1001 43.0241C92.1001 43.8241 93.2001 43.7241 93.3001 43.0241C93.4001 41.1241 93.6001 35.7241 93.6001 33.8241C93.7001 32.0241 93.3001 28.0241 95.3001 27.0241C96.0001 26.7241 95.4001 25.6241 94.7001 26.0241Z" fill="#E22A38"/>
<path d="M90.9001 25.2242C88.7001 25.6242 88.0001 27.3242 87.7001 29.3242C87.1001 33.1242 87.1001 39.5242 86.9001 43.3242C86.9001 44.1242 88.0001 44.0242 88.1001 43.3242C88.3001 40.4242 87.6001 26.9242 91.3001 26.3242C91.9001 26.2242 91.6001 25.1242 90.9001 25.2242Z" fill="#E22A38"/>
<path d="M85.3 25.4242C83.3 26.1242 82.8001 27.6242 82.6001 29.6242C82.3001 33.3242 81.9 39.7242 81.8 43.3242C81.8 44.1242 82.9 44.1242 83 43.3242L83.6001 34.2242C83.7001 32.1242 83.1001 27.3242 85.6001 26.5242C86.3001 26.3242 86 25.2242 85.3 25.4242Z" fill="#E22A38"/>
<path d="M79.7001 26.2242C77.1001 26.5242 77.0001 28.9242 76.9001 31.1242C76.6001 35.9242 76.4001 40.6242 76.1001 45.4242C76.1001 46.2242 77.2001 46.1242 77.3001 45.4242C77.5001 42.5242 77.6001 39.6242 77.8001 36.6242C77.9001 34.8242 77.3001 27.7242 79.7001 27.4242C80.4001 27.3242 80.4001 26.1242 79.7001 26.2242Z" fill="#E22A38"/>
<path d="M128.9 154.324C128.4 155.524 127.9 156.724 127.4 157.924C127.1 158.624 128.1 159.224 128.4 158.524C128.9 157.324 129.4 156.124 129.9 154.924C130.2 154.224 129.2 153.624 128.9 154.324Z" fill="white"/>
<path d="M143.2 116.124C151.8 105.224 171.1 119.424 160.7 132.724C151.9 143.824 132.5 129.724 143.2 116.124Z" fill="#F3ABAA"/>
<path d="M143.2 116.124C146.8 111.624 153.2 107.824 156.1 110.724C158.4 112.924 152.9 119.524 151.6 122.124C149.7 122.424 147.5 122.924 146.7 124.924C145.7 127.424 147.5 129.924 149.9 131.024C150.1 133.024 148.8 135.724 148.6 136.024C141.7 133.524 136.4 124.724 143.2 116.124Z" fill="#FF2633"/>
<path d="M159.5 116.924L162.9 122.524L165.9 119.124L159.5 116.924Z" fill="#E22A38"/>
<path d="M157.3 116.824L157.8 117.524C158.2 118.124 159.1 117.424 158.7 116.724L158.2 116.024C157.8 115.424 156.9 116.124 157.3 116.824Z" fill="#0D0F44"/>
<path d="M149.8 125.824C150.4 126.124 151 126.424 151.5 126.724C152.2 127.024 151.7 128.124 151.1 127.824C150.5 127.524 149.9 127.224 149.4 126.924C148.7 126.524 149.1 125.424 149.8 125.824Z" fill="#E22A38"/>
<path d="M149.5 130.124C149 130.424 144.8 147.424 144.8 147.424C144.8 147.424 155 146.724 155 146.124C155.1 145.524 160.6 130.624 160.6 130.624L149.5 130.124Z" fill="#F3ABAA"/>
<path d="M141.3 120.324C138.4 126.424 144 129.324 137.8 133.024C131.6 136.724 128.9 141.924 133 145.324C137.1 148.724 132.6 150.124 139.5 154.624C143.9 157.424 168.2 156.324 150 130.924L144 129.324L141.3 120.324Z" fill="#FF2633"/>
</svg>
