<svg width="1484" height="795" viewBox="0 0 1484 795" fill="none" xmlns="http://www.w3.org/2000/svg">
<path d="M610.5 140.267C610.5 62.7995 673.3 0 750.767 0C818.55 0 873.5 54.9496 873.5 122.733V211.846C873.5 267.712 828.212 313 772.346 313H767C680.567 313 610.5 242.933 610.5 156.5V140.267Z" fill="#FFBE3C"/>
<path d="M115.129 460.08H63.417V424.752H206.777V460.08H155.065V606H115.129V460.08ZM311.453 584.496C305.309 592.347 297.544 598.405 288.157 602.672C278.77 606.939 269.042 609.072 258.973 609.072C249.416 609.072 240.37 607.536 231.837 604.464C223.474 601.392 216.136 597.04 209.821 591.408C203.677 585.605 198.813 578.693 195.229 570.672C191.645 562.651 189.853 553.691 189.853 543.792C189.853 533.893 191.645 524.933 195.229 516.912C198.813 508.891 203.677 502.064 209.821 496.432C216.136 490.629 223.474 486.192 231.837 483.12C240.37 480.048 249.416 478.512 258.973 478.512C267.848 478.512 275.869 480.048 283.037 483.12C290.376 486.192 296.52 490.629 301.469 496.432C306.589 502.064 310.514 508.891 313.245 516.912C315.976 524.933 317.341 533.893 317.341 543.792V555.824H228.253C229.789 563.163 233.117 569.051 238.237 573.488C243.357 577.755 249.672 579.888 257.181 579.888C263.496 579.888 268.786 578.523 273.053 575.792C277.49 572.891 281.33 569.221 284.573 564.784L311.453 584.496ZM278.941 529.712C279.112 523.227 276.978 517.68 272.541 513.072C268.104 508.464 262.386 506.16 255.389 506.16C251.122 506.16 247.368 506.843 244.125 508.208C240.882 509.573 238.066 511.365 235.677 513.584C233.458 515.632 231.666 518.107 230.301 521.008C229.106 523.739 228.424 526.64 228.253 529.712H278.941ZM340.693 481.584H377.557V498.48H378.069C379.264 496.091 380.97 493.701 383.189 491.312C385.408 488.923 388.053 486.789 391.125 484.912C394.197 483.035 397.696 481.499 401.621 480.304C405.546 479.109 409.813 478.512 414.421 478.512C423.125 478.512 430.805 480.304 437.461 483.888C444.288 487.472 449.408 493.104 452.821 500.784C457.258 492.763 462.634 487.045 468.949 483.632C475.264 480.219 483.029 478.512 492.245 478.512C500.608 478.512 507.605 479.963 513.237 482.864C519.04 485.595 523.562 489.435 526.805 494.384C530.218 499.163 532.608 504.88 533.973 511.536C535.509 518.021 536.277 525.019 536.277 532.528V606H497.877V533.552C497.877 527.749 496.597 522.8 494.037 518.704C491.648 514.437 487.296 512.304 480.981 512.304C476.544 512.304 472.789 513.072 469.717 514.608C466.816 515.973 464.426 517.936 462.549 520.496C460.842 523.056 459.562 526.043 458.709 529.456C458.026 532.869 457.685 536.453 457.685 540.208V606H419.285V540.208C419.285 537.989 419.2 535.259 419.029 532.016C418.858 528.773 418.261 525.701 417.237 522.8C416.213 519.899 414.506 517.424 412.117 515.376C409.898 513.328 406.57 512.304 402.133 512.304C397.184 512.304 393.173 513.243 390.101 515.12C387.029 516.827 384.64 519.216 382.933 522.288C381.397 525.189 380.373 528.517 379.861 532.272C379.349 536.027 379.093 539.952 379.093 544.048V606H340.693V481.584ZM567.027 481.584H602.355V497.968H602.867C604.403 495.749 606.366 493.531 608.755 491.312C611.315 488.923 614.216 486.789 617.459 484.912C620.872 483.035 624.542 481.499 628.467 480.304C632.392 479.109 636.574 478.512 641.011 478.512C650.227 478.512 658.59 480.133 666.099 483.376C673.608 486.448 680.008 490.885 685.299 496.688C690.76 502.32 694.942 509.061 697.843 516.912C700.744 524.763 702.195 533.381 702.195 542.768C702.195 551.472 700.83 559.835 698.099 567.856C695.539 575.707 691.784 582.704 686.835 588.848C682.056 594.992 676.168 599.941 669.171 603.696C662.174 607.28 654.238 609.072 645.363 609.072C637.342 609.072 629.832 607.877 622.835 605.488C616.008 602.928 610.376 598.661 605.939 592.688H605.427V664.368H567.027V481.584ZM602.355 543.792C602.355 553.179 605 560.773 610.291 566.576C615.752 572.379 623.347 575.28 633.075 575.28C642.803 575.28 650.312 572.379 655.603 566.576C661.064 560.773 663.795 553.179 663.795 543.792C663.795 534.405 661.064 526.811 655.603 521.008C650.312 515.205 642.803 512.304 633.075 512.304C623.347 512.304 615.752 515.205 610.291 521.008C605 526.811 602.355 534.405 602.355 543.792ZM725.205 412.464H763.605V606H725.205V412.464ZM869.273 590.384H868.761C864.494 597.04 858.777 601.819 851.609 604.72C844.612 607.621 837.188 609.072 829.337 609.072C823.534 609.072 817.902 608.219 812.441 606.512C807.15 604.976 802.457 602.587 798.361 599.344C794.265 596.101 791.022 592.091 788.633 587.312C786.244 582.533 785.049 576.987 785.049 570.672C785.049 563.504 786.329 557.445 788.889 552.496C791.62 547.547 795.204 543.451 799.641 540.208C804.249 536.965 809.454 534.491 815.257 532.784C821.06 530.907 827.033 529.541 833.177 528.688C839.492 527.835 845.721 527.323 851.865 527.152C858.18 526.981 863.982 526.896 869.273 526.896C869.273 520.069 866.798 514.693 861.849 510.768C857.07 506.672 851.353 504.624 844.697 504.624C838.382 504.624 832.58 505.989 827.289 508.72C822.169 511.28 817.561 514.864 813.465 519.472L792.985 498.48C800.153 491.824 808.516 486.875 818.073 483.632C827.63 480.219 837.529 478.512 847.769 478.512C859.033 478.512 868.249 479.963 875.417 482.864C882.756 485.595 888.558 489.691 892.825 495.152C897.262 500.613 900.334 507.355 902.041 515.376C903.748 523.227 904.601 532.357 904.601 542.768V606H869.273V590.384ZM859.801 551.472C856.9 551.472 853.23 551.643 848.793 551.984C844.526 552.155 840.345 552.837 836.249 554.032C832.324 555.227 828.91 557.019 826.009 559.408C823.278 561.797 821.913 565.125 821.913 569.392C821.913 574 823.876 577.413 827.801 579.632C831.726 581.851 835.822 582.96 840.089 582.96C843.844 582.96 847.428 582.448 850.841 581.424C854.425 580.4 857.582 578.949 860.313 577.072C863.044 575.195 865.177 572.805 866.713 569.904C868.42 567.003 869.273 563.589 869.273 559.664V551.472H859.801ZM1013.43 512.304H979.637V553.776C979.637 557.189 979.808 560.347 980.149 563.248C980.49 565.979 981.258 568.368 982.453 570.416C983.648 572.464 985.44 574.085 987.829 575.28C990.389 576.304 993.717 576.816 997.813 576.816C999.861 576.816 1002.51 576.645 1005.75 576.304C1009.16 575.792 1011.72 574.768 1013.43 573.232V605.232C1009.16 606.768 1004.73 607.792 1000.12 608.304C995.509 608.816 990.986 609.072 986.549 609.072C980.064 609.072 974.09 608.389 968.629 607.024C963.168 605.659 958.389 603.525 954.293 600.624C950.197 597.552 946.954 593.627 944.565 588.848C942.346 584.069 941.237 578.267 941.237 571.44V512.304H916.661V481.584H941.237V444.72H979.637V481.584H1013.43V512.304ZM1150.7 584.496C1144.56 592.347 1136.79 598.405 1127.41 602.672C1118.02 606.939 1108.29 609.072 1098.22 609.072C1088.67 609.072 1079.62 607.536 1071.09 604.464C1062.72 601.392 1055.39 597.04 1049.07 591.408C1042.93 585.605 1038.06 578.693 1034.48 570.672C1030.9 562.651 1029.1 553.691 1029.1 543.792C1029.1 533.893 1030.9 524.933 1034.48 516.912C1038.06 508.891 1042.93 502.064 1049.07 496.432C1055.39 490.629 1062.72 486.192 1071.09 483.12C1079.62 480.048 1088.67 478.512 1098.22 478.512C1107.1 478.512 1115.12 480.048 1122.29 483.12C1129.63 486.192 1135.77 490.629 1140.72 496.432C1145.84 502.064 1149.76 508.891 1152.5 516.912C1155.23 524.933 1156.59 533.893 1156.59 543.792V555.824H1067.5C1069.04 563.163 1072.37 569.051 1077.49 573.488C1082.61 577.755 1088.92 579.888 1096.43 579.888C1102.75 579.888 1108.04 578.523 1112.3 575.792C1116.74 572.891 1120.58 569.221 1123.82 564.784L1150.7 584.496ZM1118.19 529.712C1118.36 523.227 1116.23 517.68 1111.79 513.072C1107.35 508.464 1101.64 506.16 1094.64 506.16C1090.37 506.16 1086.62 506.843 1083.38 508.208C1080.13 509.573 1077.32 511.365 1074.93 513.584C1072.71 515.632 1070.92 518.107 1069.55 521.008C1068.36 523.739 1067.67 526.64 1067.5 529.712H1118.19ZM1258.02 590.384H1257.51C1253.24 597.04 1247.53 601.819 1240.36 604.72C1233.36 607.621 1225.94 609.072 1218.09 609.072C1212.28 609.072 1206.65 608.219 1201.19 606.512C1195.9 604.976 1191.21 602.587 1187.11 599.344C1183.02 596.101 1179.77 592.091 1177.38 587.312C1174.99 582.533 1173.8 576.987 1173.8 570.672C1173.8 563.504 1175.08 557.445 1177.64 552.496C1180.37 547.547 1183.95 543.451 1188.39 540.208C1193 536.965 1198.2 534.491 1204.01 532.784C1209.81 530.907 1215.78 529.541 1221.93 528.688C1228.24 527.835 1234.47 527.323 1240.62 527.152C1246.93 526.981 1252.73 526.896 1258.02 526.896C1258.02 520.069 1255.55 514.693 1250.6 510.768C1245.82 506.672 1240.1 504.624 1233.45 504.624C1227.13 504.624 1221.33 505.989 1216.04 508.72C1210.92 511.28 1206.31 514.864 1202.22 519.472L1181.74 498.48C1188.9 491.824 1197.27 486.875 1206.82 483.632C1216.38 480.219 1226.28 478.512 1236.52 478.512C1247.78 478.512 1257 479.963 1264.17 482.864C1271.51 485.595 1277.31 489.691 1281.58 495.152C1286.01 500.613 1289.08 507.355 1290.79 515.376C1292.5 523.227 1293.35 532.357 1293.35 542.768V606H1258.02V590.384ZM1248.55 551.472C1245.65 551.472 1241.98 551.643 1237.54 551.984C1233.28 552.155 1229.1 552.837 1225 554.032C1221.07 555.227 1217.66 557.019 1214.76 559.408C1212.03 561.797 1210.66 565.125 1210.66 569.392C1210.66 574 1212.63 577.413 1216.55 579.632C1220.48 581.851 1224.57 582.96 1228.84 582.96C1232.59 582.96 1236.18 582.448 1239.59 581.424C1243.18 580.4 1246.33 578.949 1249.06 577.072C1251.79 575.195 1253.93 572.805 1255.46 569.904C1257.17 567.003 1258.02 563.589 1258.02 559.664V551.472H1248.55ZM1387.84 518.192C1382.21 511.195 1374.79 507.696 1365.57 507.696C1362.33 507.696 1359.17 508.464 1356.1 510C1353.03 511.536 1351.49 514.181 1351.49 517.936C1351.49 521.008 1353.03 523.312 1356.1 524.848C1359.34 526.213 1363.35 527.493 1368.13 528.688C1373.08 529.712 1378.29 530.907 1383.75 532.272C1389.38 533.467 1394.58 535.429 1399.36 538.16C1404.31 540.891 1408.32 544.645 1411.4 549.424C1414.64 554.032 1416.26 560.261 1416.26 568.112C1416.26 576.133 1414.47 582.789 1410.88 588.08C1407.47 593.2 1403.03 597.381 1397.57 600.624C1392.11 603.696 1385.97 605.829 1379.14 607.024C1372.31 608.389 1365.57 609.072 1358.92 609.072C1350.21 609.072 1341.42 607.877 1332.55 605.488C1323.67 602.928 1316.16 598.491 1310.02 592.176L1333.32 566.32C1336.9 570.757 1340.82 574.171 1345.09 576.56C1349.53 578.779 1354.65 579.888 1360.45 579.888C1364.89 579.888 1368.9 579.291 1372.48 578.096C1376.07 576.731 1377.86 574.341 1377.86 570.928C1377.86 567.685 1376.24 565.296 1373 563.76C1369.92 562.053 1365.91 560.688 1360.96 559.664C1356.18 558.469 1350.98 557.275 1345.35 556.08C1339.89 554.715 1334.68 552.752 1329.73 550.192C1324.95 547.632 1320.94 544.048 1317.7 539.44C1314.63 534.661 1313.09 528.347 1313.09 520.496C1313.09 513.157 1314.54 506.843 1317.44 501.552C1320.52 496.261 1324.44 491.909 1329.22 488.496C1334.17 485.083 1339.8 482.608 1346.12 481.072C1352.43 479.365 1358.83 478.512 1365.32 478.512C1373.51 478.512 1381.78 479.707 1390.15 482.096C1398.51 484.485 1405.59 488.752 1411.4 494.896L1387.84 518.192Z" fill="white"/>
</svg>
